<svg xmlns="http://www.w3.org/2000/svg" xmlns:svg="http://www.w3.org/2000/svg" xmlns:xlink="http://www.w3.org/1999/xlink" id="svg11300" width="24" height="24" version="1.0" style="display:inline;enable-background:new"><defs id="defs3"><linearGradient id="linearGradient3821" x1="24" x2="24" y1="22" y2="2" gradientTransform="translate(0,276)" gradientUnits="userSpaceOnUse" xlink:href="#linearGradient5236"/><linearGradient id="linearGradient5236"><stop id="stop5238" offset="0" style="stop-color:#4884c0;stop-opacity:1"/><stop id="stop5240" offset="1" style="stop-color:#74a2d0;stop-opacity:1"/></linearGradient></defs><metadata id="metadata4"/><g style="display:inline" id="layer1" transform="translate(0,-276)"><rect id="rect3045" width="22" height="22" x="1" y="277" rx="3" ry="3" style="opacity:1;fill:#2a4a79;fill-opacity:1;stroke:none"/><rect style="fill:url(#linearGradient3821);fill-opacity:1;stroke:none" id="rect3043" width="20" height="20" x="2" y="278" rx="2" ry="2"/><path style="fill:#fff;fill-opacity:1;stroke:none;opacity:.15" id="rect4255" d="M 4 2 C 2.892 2 2 2.892 2 4 L 2 5 C 2 3.892 2.892 3 4 3 L 20 3 C 21.108 3 22 3.892 22 5 L 22 4 C 22 2.892 21.108 2 20 2 L 4 2 z" transform="translate(0,276)"/><path id="path4264" d="m 4,298 c -1.108,0 -2,-0.892 -2,-2 l 0,-1 c 0,1.108 0.892,2 2,2 l 16,0 c 1.108,0 2,-0.892 2,-2 l 0,1 c 0,1.108 -0.892,2 -2,2 l -16,0 z" style="opacity:.05;fill:#fff;fill-opacity:1;stroke:none"/><path style="fill:#fff;fill-opacity:1;stroke:none;opacity:.02" id="rect4266" d="M 4 2 C 2.892 2 2 2.892 2 4 L 2 20 C 2 21.108 2.892 22 4 22 L 20 22 C 21.108 22 22 21.108 22 20 L 22 4 C 22 2.892 21.108 2 20 2 L 4 2 z M 4.8125 3 L 19.1875 3 C 20.1847 3 21 3.8153 21 4.8125 L 21 19.1875 C 21 20.1847 20.1847 21 19.1875 21 L 4.8125 21 C 3.8153 21 3 20.1847 3 19.1875 L 3 4.8125 C 3 3.8153 3.8153 3 4.8125 3 z" transform="translate(0,276)"/></g></svg>