<svg xmlns="http://www.w3.org/2000/svg" xmlns:svg="http://www.w3.org/2000/svg" xmlns:xlink="http://www.w3.org/1999/xlink" id="svg11300" width="24" height="24" version="1.0" style="display:inline;enable-background:new"><defs id="defs3"><linearGradient id="linearGradient3815"><stop style="stop-color:#c8c8c8;stop-opacity:1" id="stop3817" offset="0"/><stop style="stop-color:#d7d7d7;stop-opacity:1" id="stop3819" offset="1"/></linearGradient><linearGradient id="linearGradient3821" x1="24" x2="24" y1="22" y2="2" gradientTransform="translate(0,-300)" gradientUnits="userSpaceOnUse" xlink:href="#linearGradient3815"/></defs><metadata id="metadata4"/><g style="display:inline" id="layer1" transform="translate(0,-276)"><rect id="rect3045" width="22" height="22" x="1" y="277" rx="3" ry="3" style="opacity:.3;fill:#000;fill-opacity:1;stroke:none"/><rect style="fill:url(#linearGradient3821);fill-opacity:1;stroke:none" id="rect3043" width="20" height="20" x="2" y="-298" rx="2" ry="2" transform="scale(1,-1)"/><path style="fill:#000;fill-opacity:1;stroke:none;opacity:.05" id="rect3876" d="M 4 2 C 2.892 2 2 2.892 2 4 L 2 20 C 2 21.108 2.892 22 4 22 L 20 22 C 21.108 22 22 21.108 22 20 L 22 4 C 22 2.892 21.108 2 20 2 L 4 2 z M 5 3 L 19 3 C 20.108 3 21 3.892 21 5 L 21 19 C 21 20.108 20.108 21 19 21 L 5 21 C 3.892 21 3 20.108 3 19 L 3 5 C 3 3.892 3.892 3 5 3 z" transform="translate(0,276)"/><path style="opacity:.6;fill:#fff;fill-opacity:1;stroke:none" id="rect3024" d="M 1 21 L 1 22 C 1 23.108 1.892 24 3 24 L 21 24 C 22.108 24 23 23.108 23 22 L 23 21 C 23 22.108 22.108 23 21 23 L 3 23 C 1.892 23 1 22.108 1 21 z" transform="translate(0,276)"/></g></svg>