<svg xmlns="http://www.w3.org/2000/svg" xmlns:svg="http://www.w3.org/2000/svg" xmlns:xlink="http://www.w3.org/1999/xlink" id="svg11300" width="24" height="24" version="1.0" style="display:inline;enable-background:new"><defs id="defs3"><linearGradient id="linearGradient3815"><stop style="stop-color:#c8c8c8;stop-opacity:1" id="stop3817" offset="0"/><stop style="stop-color:#d7d7d7;stop-opacity:1" id="stop3819" offset="1"/></linearGradient><linearGradient id="linearGradient3821" x1="24" x2="24" y1="22" y2="2" gradientTransform="matrix(1,0,0,-1,0,24)" gradientUnits="userSpaceOnUse" xlink:href="#linearGradient3815"/><linearGradient id="linearGradient3016" x1="-1" x2="-1" y1="22" y2="1" gradientTransform="matrix(1,0,0,-1,1,300)" gradientUnits="userSpaceOnUse" xlink:href="#linearGradient3815"/></defs><metadata id="metadata4"/><g style="display:inline" id="layer1" transform="translate(0,-276)"><path style="display:inline;opacity:.3;fill:#000;fill-opacity:1;enable-background:new" id="rect6355" d="m 5,277 c -1.662,0 -3,1.338 -3,3 l 0,16 c 0,1.662 1.338,3 3,3 l 19,0 0,-22 z"/><path style="fill:url(#linearGradient3016);fill-opacity:1;stroke:none" id="rect3043" d="m 5,278 c -1.108,0 -2,0.892 -2,2 l 0,16 c 0,1.108 0.892,2 2,2 l 19,0 0,-20 z"/><path style="opacity:.05;fill:#000;fill-opacity:1;stroke:none" id="rect3876" d="m 5,278 c -1.108,0 -2,0.892 -2,2 l 0,16 c 0,1.108 0.892,2 2,2 l 19,0 0,-1 -18,0 c -1.108,0 -2,-0.892 -2,-2 l 0,-14 c 0,-1.108 0.892,-2 2,-2 l 18,0 0,-1 z"/><path style="display:inline;opacity:.6;fill:#fff;fill-opacity:1;enable-background:new" id="path6448" d="m 2,296 0,1 c 0,1.662 1.338,3 3,3 l 19,0 0,-1 -19,0 c -1.662,0 -3,-1.338 -3,-3 z"/></g></svg>