<svg xmlns="http://www.w3.org/2000/svg" xmlns:svg="http://www.w3.org/2000/svg" id="svg11300" width="24" height="24" version="1.0" style="display:inline;enable-background:new"><metadata id="metadata4"/><g style="display:inline" id="layer1" transform="translate(0,-276)"><path style="opacity:.1;fill:#fff;fill-opacity:1;stroke:none" id="rect4176" d="m 5,278 c -1.662,0 -3,1.338 -3,3 l 0,14 c 0,1.662 1.338,3 3,3 l 14,0 c 1.662,0 3,-1.338 3,-3 l 0,-14 c 0,-1.662 -1.338,-3 -3,-3 z m 0,1 14,0 c 1.108,0 2,0.892 2,2 l 0,14 c 0,1.108 -0.892,2 -2,2 l -14,0 c -1.108,0 -2,-0.892 -2,-2 l 0,-14 c 0,-1.108 0.892,-2 2,-2 z"/><rect id="rect3009" width="18" height="18" x="3" y="279" rx="2" ry="2" style="opacity:.65;fill:#000;fill-opacity:1;stroke:none"/><path style="opacity:.5;fill:#000;fill-opacity:1;stroke:none" id="rect4162" d="m 5,279 c -1.108,0 -2,0.892 -2,2 l 0,14 c 0,1.108 0.892,2 2,2 l 14,0 c 1.108,0 2,-0.892 2,-2 l 0,-14 c 0,-1.108 -0.892,-2 -2,-2 z m 0,1 14,0 c 0.554,0 1,0.446 1,1 l 0,14 c 0,0.554 -0.446,1 -1,1 l -14,0 c -0.554,0 -1,-0.446 -1,-1 l 0,-14 c 0,-0.554 0.446,-1 1,-1 z"/></g></svg>