<svg xmlns="http://www.w3.org/2000/svg" xmlns:svg="http://www.w3.org/2000/svg" id="svg11300" width="24" height="24" version="1.0" style="display:inline;enable-background:new"><metadata id="metadata4"/><g style="display:inline" id="layer1" transform="translate(0,-276)"><path style="fill:#000;fill-opacity:1;opacity:0" id="rect3216" d="m 1,278 0,13 4,0 0,7 3,0 0,-7 8,0 0,7 3,0 0,-7 4,0 0,-13 z m 1,1 9,0 0,5 -9,0 z m 11,0 9,0 0,5 -9,0 z m -11,6 9,0 0,5 -9,0 z m 11,0 9,0 0,5 -9,0 z m -7,7 1,0 0,2 -1,0 z m 11,0 1,0 0,2 -1,0 z m -11,3 1,0 0,2 -1,0 z m 11,0 1,0 0,2 -1,0 z"/><path style="fill:#666;fill-opacity:1" id="rect3047" d="m 7,15 0,2 1,0 0,-2 z m 9,0 0,2 1,0 0,-2 z m -9,3 0,2 1,0 0,-2 z m 9,0 0,2 1,0 0,-2 z" transform="translate(0,276)"/><path id="rect3263" d="m 4,280 7,0 0,4 -7,0 z m 0,5 7,0 0,4 -7,0 z m 9,-5 7,0 0,4 -7,0 z m 0,5 7,0 0,4 -7,0 z" style="opacity:.5;fill:#666;fill-opacity:1"/></g></svg>