<svg xmlns="http://www.w3.org/2000/svg" xmlns:svg="http://www.w3.org/2000/svg" id="svg11300" width="24" height="24" version="1.0" style="display:inline;enable-background:new"><metadata id="metadata4"/><g style="display:inline" id="layer1" transform="translate(0,-276)"><path style="opacity:1;fill:#2a4a79;fill-opacity:1;stroke:none" id="rect3005" d="M 5 1 C 2.784 1 1 2.784 1 5 L 1 19 C 1 21.216 2.784 23 5 23 L 19 23 C 21.216 23 23 21.216 23 19 L 23 5 C 23 2.784 21.216 1 19 1 L 5 1 z M 5.0976562 2 L 19.097656 2 C 20.759656 2 22.097656 3.338 22.097656 5 L 22.097656 19 C 22.097656 20.662 20.759656 22 19.097656 22 L 5.0976562 22 C 3.4356563 22 2.0976562 20.662 2.0976562 19 L 2.0976562 5 C 2.0976562 3.338 3.4356563 2 5.0976562 2 z" transform="translate(0,276)"/><rect style="opacity:1;fill:#6598cb;fill-opacity:1;stroke:none" id="rect3003" width="20" height="20" x="2.097" y="278" rx="3" ry="3"/></g></svg>