<svg xmlns="http://www.w3.org/2000/svg" xmlns:svg="http://www.w3.org/2000/svg" xmlns:xlink="http://www.w3.org/1999/xlink" id="svg11300" width="16" height="16" version="1.0" style="display:inline;enable-background:new"><defs id="defs3"><linearGradient id="linearGradient3771"><stop style="stop-color:#fff;stop-opacity:1" id="stop3773" offset="0"/><stop style="stop-color:#eaeaea;stop-opacity:1" id="stop3775" offset="1"/></linearGradient><linearGradient id="linearGradient3769" x1="16" x2="16" y1="15" y2="1" gradientTransform="matrix(0.85714286,0,0,0.85714286,1.1428571,285.14286)" gradientUnits="userSpaceOnUse" xlink:href="#linearGradient4246"/><linearGradient id="linearGradient4359" x1="17.333" x2="17.333" y1="13.833" y2="1" gradientTransform="matrix(0.42857102,0,0,0.42857102,4.5714318,4.57143)" gradientUnits="userSpaceOnUse" xlink:href="#linearGradient3771-8"/><linearGradient id="linearGradient4357" x1="17.333" x2="17.333" y1="13.833" y2="1" gradientUnits="userSpaceOnUse" xlink:href="#linearGradient3771-8"/><linearGradient id="linearGradient3771-8"><stop id="stop3773-2" offset="0" style="stop-color:#fff;stop-opacity:1"/><stop id="stop3775-7" offset="1" style="stop-color:#eaeaea;stop-opacity:1"/></linearGradient><linearGradient id="linearGradient4246"><stop id="stop4248" offset="0" style="stop-color:#6397c9;stop-opacity:1"/><stop id="stop4250" offset="1" style="stop-color:#8db3d7;stop-opacity:1"/></linearGradient><linearGradient id="linearGradient3992-4-9-4"><stop style="stop-color:#505050;stop-opacity:1" id="stop3994-7-9-3" offset="0"/><stop style="stop-color:#3c3c3c;stop-opacity:1" id="stop3996-2-5-9" offset="1"/></linearGradient><linearGradient id="linearGradient3992-4-9"><stop id="stop3994-7-9" offset="0" style="stop-color:#505050;stop-opacity:1"/><stop id="stop3996-2-5" offset="1" style="stop-color:#3c3c3c;stop-opacity:1"/></linearGradient></defs><metadata id="metadata4"/><g style="display:inline" id="layer1" transform="translate(0,-284)"><rect id="rect3771" width="14" height="14" x="1" y="285" rx="1" ry="1" style="opacity:.6;fill:#000;fill-opacity:1;stroke:none"/><rect style="fill:url(#linearGradient3769);fill-opacity:1;stroke:none" id="rect2993" width="12" height="12" x="2" y="286" rx="1" ry="1"/><path style="opacity:.16;fill:#fff;fill-opacity:1;stroke:none" id="rect3889" d="M 1 14 L 1 15 C 1 15.554 1.446 16 2 16 L 14 16 C 14.554 16 15 15.554 15 15 L 15 14 C 15 14.554 14.554 15 14 15 L 2 15 C 1.446 15 1 14.554 1 14 z" transform="translate(0,284)"/><path style="opacity:.15;fill:#fff;fill-opacity:1;stroke:none" id="rect3892" d="m 3,286 c -0.554,0 -1,0.446 -1,1 l 0,1 c 0,-0.554 0.446,-1 1,-1 l 10,0 c 0.554,0 1,0.446 1,1 l 0,-1 c 0,-0.554 -0.446,-1 -1,-1 l -10,0 z"/><path id="path3910" d="m 3,298 c -0.554,0 -1,-0.446 -1,-1 l 0,-1 c 0,0.554 0.446,1 1,1 l 10,0 c 0.554,0 1,-0.446 1,-1 l 0,1 c 0,0.554 -0.446,1 -1,1 l -10,0 z" style="opacity:.07999998;fill:#fff;fill-opacity:1;stroke:none"/><path style="fill:#fff;fill-opacity:1;stroke:none;display:inline;enable-background:new" id="path4703-0" d="m 2,293.63636 c 0,0 1.52513,0.31952 3.2045,1.28376 C 8.20451,290.55649 13,287 14,287 c 0,0 -6,6.63636 -8,11 l -1,0 z"/></g></svg>