<svg xmlns="http://www.w3.org/2000/svg" xmlns:svg="http://www.w3.org/2000/svg" xmlns:xlink="http://www.w3.org/1999/xlink" id="svg11300" width="16" height="16" version="1.0" style="display:inline;enable-background:new"><defs id="defs3"><linearGradient id="linearGradient3771"><stop style="stop-color:#fff;stop-opacity:1" id="stop3773" offset="0"/><stop style="stop-color:#eaeaea;stop-opacity:1" id="stop3775" offset="1"/></linearGradient><linearGradient id="linearGradient3769" x1="16" x2="16" y1="15" y2="1" gradientTransform="matrix(0.85714286,0,0,0.85714286,1.1428571,285.14286)" gradientUnits="userSpaceOnUse" xlink:href="#linearGradient3771"/><linearGradient id="linearGradient3896" x1="16" x2="16" y1="15" y2="1" gradientTransform="matrix(0.85714286,0,0,0.85714286,1.1428571,286.14286)" gradientUnits="userSpaceOnUse" xlink:href="#linearGradient3771"/><linearGradient id="linearGradient3898" x1="16" x2="16" y1="15" y2="1" gradientTransform="matrix(0.85714286,0,0,0.85714286,1.1428571,1.14286)" gradientUnits="userSpaceOnUse" xlink:href="#linearGradient3771"/><linearGradient id="linearGradient3905" x1="16" x2="16" y1="15" y2="1" gradientTransform="matrix(0.85714286,0,0,0.85714286,1.1428571,287.14286)" gradientUnits="userSpaceOnUse" xlink:href="#linearGradient3771"/><linearGradient id="linearGradient3907" x1="16" x2="16" y1="15" y2="1" gradientTransform="matrix(0.85714286,0,0,0.85714286,1.1428571,1.14286)" gradientUnits="userSpaceOnUse" xlink:href="#linearGradient3771"/></defs><metadata id="metadata4"/><g style="display:inline" id="layer1" transform="translate(0,-284)"><rect id="rect3771" width="14" height="14" x="1" y="285" rx="1" ry="1" style="opacity:.4;fill:#000;fill-opacity:1;stroke:none"/><rect style="fill:url(#linearGradient3769);fill-opacity:1;stroke:none" id="rect2993" width="12" height="12" x="2" y="286" rx="1" ry="1"/><path style="opacity:.16;fill:#fff;fill-opacity:1;stroke:none" id="rect3889" d="M 1 14 L 1 15 C 1 15.554 1.446 16 2 16 L 14 16 C 14.554 16 15 15.554 15 15 L 15 14 C 15 14.554 14.554 15 14 15 L 2 15 C 1.446 15 1 14.554 1 14 z" transform="translate(0,284)"/><path style="fill:#000;fill-opacity:1;stroke:none;opacity:.04" id="rect3901" d="M 3 2 C 2.446 2 2 2.446 2 3 L 2 5 C 2 4.446 2.446 4 3 4 L 13 4 C 13.554 4 14 4.446 14 5 L 14 3 C 14 2.446 13.554 2 13 2 L 3 2 z" transform="translate(0,284)"/><path style="fill:#000;fill-opacity:1;stroke:none;opacity:.08" id="rect3892" d="M 3 2 C 2.446 2 2 2.446 2 3 L 2 4 C 2 3.446 2.446 3 3 3 L 13 3 C 13.554 3 14 3.446 14 4 L 14 3 C 14 2.446 13.554 2 13 2 L 3 2 z" transform="translate(0,284)"/><path id="path3910" d="m 3,298 c -0.554,0 -1,-0.446 -1,-1 l 0,-1 c 0,0.554 0.446,1 1,1 l 10,0 c 0.554,0 1,-0.446 1,-1 l 0,1 c 0,0.554 -0.446,1 -1,1 l -10,0 z" style="opacity:.07999998;fill:#000;fill-opacity:1;stroke:none"/></g></svg>