<svg xmlns="http://www.w3.org/2000/svg" xmlns:svg="http://www.w3.org/2000/svg" id="svg11300" width="41" height="61" version="1.0" style="display:inline;enable-background:new"><defs id="defs3"><linearGradient id="linearGradient4006-3-3"><stop style="stop-color:#fff;stop-opacity:1" id="stop4008-3-1" offset="0"/><stop style="stop-color:#fff;stop-opacity:0" id="stop4010-8-5" offset="1"/></linearGradient><linearGradient id="linearGradient3811-3"><stop id="stop3813-3" offset="0" style="stop-color:#fff;stop-opacity:1"/><stop id="stop3815-9" offset="1" style="stop-color:#fff;stop-opacity:0"/></linearGradient><linearGradient id="linearGradient5902"><stop style="stop-color:#000;stop-opacity:1" id="stop5904" offset="0"/><stop style="stop-color:#000;stop-opacity:0" id="stop5906" offset="1"/></linearGradient><linearGradient id="linearGradient5235"><stop style="stop-color:#000;stop-opacity:0" id="stop5237" offset="0"/><stop id="stop5239" offset=".35" style="stop-color:#000;stop-opacity:.78431374"/><stop id="stop5241" offset=".5" style="stop-color:#000;stop-opacity:1"/><stop style="stop-color:#000;stop-opacity:.78431374" id="stop5243" offset=".65"/><stop style="stop-color:#000;stop-opacity:0" id="stop5245" offset="1"/></linearGradient></defs><metadata id="metadata4"/><g style="display:inline" id="layer1" transform="translate(0,-239)"><circle style="opacity:.85;fill:#000;fill-opacity:1;fill-rule:nonzero;stroke:none" id="path3800" cx="20.5" cy="282.5" r="14.5"/><g id="g27277-1-1" transform="matrix(0.88893521,0,0,0.88925773,-47.26894,-406.75809)" style="display:inline;fill:#fff;fill-opacity:1;stroke:none"><path id="path27279-0-5" d="m 71.177839,770.03365 1.26506,0 c 0.01312,-1.5e-4 0.0263,-5.8e-4 0.03953,0 0.322528,0.0142 0.645016,0.16266 0.869729,0.39533 l 2.88592,2.88592 2.925453,-2.88592 c 0.336032,-0.2916 0.565067,-0.38648 0.869729,-0.39533 l 1.265061,0 0,1.26506 c 0,0.3624 -0.04344,0.6966 -0.316265,0.94879 l -2.88592,2.88592 2.846387,2.84639 c 0.238069,0.23805 0.355788,0.57364 0.355798,0.90926 l 0,1.26506 -1.265061,0 c -0.335622,-10e-6 -0.671223,-0.11777 -0.909262,-0.35579 l -2.88592,-2.88592 -2.88592,2.88592 c -0.238039,0.23807 -0.573655,0.35579 -0.909263,0.35579 l -1.26506,0 0,-1.26506 c -4e-6,-0.3356 0.117726,-0.67121 0.355798,-0.90926 l 2.88592,-2.84639 -2.88592,-2.88592 c -0.266601,-0.24621 -0.383516,-0.59363 -0.355798,-0.94879 l 0,-1.26506 z" style="color:#bebebe;font-style:normal;font-variant:normal;font-weight:400;font-stretch:normal;font-size:medium;line-height:normal;font-family:'Andale Mono';-inkscape-font-specification:'Andale Mono';text-indent:0;text-align:start;text-decoration:none;text-decoration-line:none;letter-spacing:normal;word-spacing:normal;text-transform:none;direction:ltr;block-progression:tb;writing-mode:lr-tb;text-anchor:start;display:inline;overflow:visible;visibility:visible;fill:#fff;fill-opacity:1;fill-rule:nonzero;stroke:none;stroke-width:1.78124988;marker:none;enable-background:new"/></g><path style="opacity:.75;fill:#fff;fill-opacity:1;fill-rule:nonzero;stroke:none" id="path3802-0" d="m 20.500003,266.00001 c -9.112698,0 -16.5000001,7.3873 -16.5000001,16.5 0,9.1127 7.3873021,16.5 16.5000001,16.5 9.112698,0 16.5,-7.3873 16.5,-16.5 0,-9.1127 -7.387302,-16.5 -16.5,-16.5 z m 0,2 c 8.008129,0 14.5,6.49187 14.5,14.5 0,8.00813 -6.491871,14.5 -14.5,14.5 -8.008129,0 -14.5000001,-6.49187 -14.5000001,-14.5 0,-8.00813 6.4918711,-14.5 14.5000001,-14.5 z"/></g></svg>