<svg xmlns="http://www.w3.org/2000/svg" xmlns:svg="http://www.w3.org/2000/svg" xmlns:xlink="http://www.w3.org/1999/xlink" id="svg11300" width="24" height="24" version="1.0" style="display:inline;enable-background:new"><defs id="defs3"><linearGradient id="linearGradient3771"><stop style="stop-color:#fff;stop-opacity:1" id="stop3773" offset="0"/><stop style="stop-color:#eaeaea;stop-opacity:1" id="stop3775" offset="1"/></linearGradient><linearGradient id="linearGradient3777" x1="24" x2="24" y1="298" y2="278" gradientUnits="userSpaceOnUse" xlink:href="#linearGradient3771"/></defs><metadata id="metadata4"/><g style="display:inline" id="layer1" transform="translate(0,-276)"><rect style="opacity:.3;fill:#000;fill-opacity:1;stroke:none" id="rect2999" width="22" height="22" x="1" y="1" rx="3" ry="3" transform="translate(0,276)"/><rect id="rect3769" width="20" height="20" x="2" y="278" rx="3" ry="3" style="fill:url(#linearGradient3777);fill-opacity:1;stroke:none"/><path style="fill:#000;fill-opacity:1;stroke:none;opacity:.06" id="rect3876" d="M 5 2 C 3.338 2 2 3.338 2 5 L 2 19 C 2 20.662 3.338 22 5 22 L 19 22 C 20.662 22 22 20.662 22 19 L 22 5 C 22 3.338 20.662 2 19 2 L 5 2 z M 6 3 L 18 3 C 19.662 3 21 4.338 21 6 L 21 18 C 21 19.662 19.662 21 18 21 L 6 21 C 4.338 21 3 19.662 3 18 L 3 6 C 3 4.338 4.338 3 6 3 z" transform="translate(0,276)"/><path style="opacity:.3;fill:#fff;fill-opacity:1;stroke:none" id="rect3846" d="M 1 20 L 1 21 C 1 22.662 2.338 24 4 24 L 20 24 C 21.662 24 23 22.662 23 21 L 23 20 C 23 21.662 21.662 23 20 23 L 4 23 C 2.338 23 1 21.662 1 20 z" transform="translate(0,276)"/><path style="fill:#000;fill-opacity:1;stroke:none;opacity:.06" id="rect3851" d="M 5 2 C 3.338 2 2 3.338 2 5 L 2 6 C 2 4.338 3.338 3 5 3 L 19 3 C 20.662 3 22 4.338 22 6 L 22 5 C 22 3.338 20.662 2 19 2 L 5 2 z" transform="translate(0,276)"/><path style="fill:#000;fill-opacity:1;stroke:none;opacity:.03" id="rect3860" d="M 5 3 C 3.338 3 2 4.338 2 6 L 2 7 C 2 5.338 3.338 4 5 4 L 19 4 C 20.662 4 22 5.338 22 7 L 22 6 C 22 4.338 20.662 3 19 3 L 5 3 z" transform="translate(0,276)"/><path id="path3874" d="m 5,298 c -1.662,0 -3,-1.338 -3,-3 l 0,-1 c 0,1.662 1.338,3 3,3 l 14,0 c 1.662,0 3,-1.338 3,-3 l 0,1 c 0,1.662 -1.338,3 -3,3 l -14,0 z" style="opacity:.02;fill:#000;fill-opacity:1;stroke:none"/></g></svg>