<svg xmlns="http://www.w3.org/2000/svg" xmlns:svg="http://www.w3.org/2000/svg" id="svg11300" width="16" height="16" version="1.0" style="display:inline;enable-background:new"><metadata id="metadata4"/><g style="display:inline" id="layer1" transform="translate(0,-284)"><path style="opacity:.4;fill:#000;fill-opacity:1;stroke:none" id="path4100" d="M 8 2 L 8 6 L 10 6 L 10 8 L 14 8 L 14 2 L 8 2 z M 9 3 L 13 3 L 13 7 L 11 7 L 11 5 L 9 5 L 9 3 z" transform="translate(0,284)"/><path id="path4035" d="m 7,289 0,-2 -4,0 0,4 2,0 0,-2 z m 2,0 0,-2 4,0 0,4 -2,0 0,-2 z m 0,6 0,2 4,0 0,-4 -2,0 0,2 z m -4,-2 -2,0 0,4 4,0 0,-2 -2,0 z" style="fill:#fff;fill-opacity:1;stroke:none;opacity:.64"/><path id="path4171" d="m 8,298 0,-4 2,0 0,-2 4,0 0,6 -6,0 z m 1,-1 4,0 0,-4 -2,0 0,2 -2,0 0,2 z" style="opacity:.4;fill:#000;fill-opacity:1;stroke:none"/><path style="opacity:.4;fill:#000;fill-opacity:1;stroke:none" id="path4173" d="m 8,298 0,-4 -2,0 0,-2 -4,0 0,6 6,0 z m -1,-1 -4,0 0,-4 2,0 0,2 2,0 0,2 z"/><path id="path4175" d="m 8,286 0,4 -2,0 0,2 -4,0 0,-6 6,0 z m -1,1 -4,0 0,4 2,0 0,-2 2,0 0,-2 z" style="opacity:.4;fill:#000;fill-opacity:1;stroke:none"/></g></svg>