<svg xmlns="http://www.w3.org/2000/svg" xmlns:svg="http://www.w3.org/2000/svg" id="svg11300" width="16" height="16" version="1.0" style="display:inline;enable-background:new"><metadata id="metadata4"/><g style="display:inline" id="layer1" transform="translate(0,-284)"><path id="path4035" d="m 6,288 0,-2 -4,0 0,4 2,0 0,-2 z m 4,0 0,-2 4,0 0,4 -2,0 0,-2 z m 0,8 0,2 4,0 0,-4 -2,0 0,2 z m -6,-2 -2,0 0,4 4,0 0,-2 -2,0 z" style="opacity:.63999999;fill:#fff;fill-opacity:1;stroke:none"/><path id="path4175" d="m 7,285 0,4 -2,0 0,2 -4,0 0,-6 6,0 z m -1,1 -4,0 0,4 2,0 0,-2 2,0 0,-2 z m 1,13 0,-4 -2,0 0,-2 -4,0 0,6 6,0 z m -1,-1 -4,0 0,-4 2,0 0,2 2,0 0,2 z m 3,1 0,-4 2,0 0,-2 4,0 0,6 -6,0 z m 1,-1 4,0 0,-4 -2,0 0,2 -2,0 0,2 z m -1,-13 0,4 2,0 0,2 4,0 0,-6 -6,0 z m 1,1 4,0 0,4 -2,0 0,-2 -2,0 0,-2 z" style="opacity:.4;fill:#000;fill-opacity:1;stroke:none"/></g></svg>