<svg xmlns="http://www.w3.org/2000/svg" xmlns:svg="http://www.w3.org/2000/svg" xmlns:xlink="http://www.w3.org/1999/xlink" id="svg3482" width="48" height="26" version="1.1"><defs id="defs3484"><linearGradient id="linearGradient3953"><stop style="stop-color:#828282;stop-opacity:.68627453" id="stop3955" offset="0"/><stop style="stop-color:#828282;stop-opacity:0" id="stop3957" offset="1"/></linearGradient><linearGradient id="linearGradient3965-6"><stop style="stop-color:#fff;stop-opacity:.39285713" id="stop3967-3" offset="0"/><stop style="stop-color:#fff;stop-opacity:0" id="stop3969-2" offset="1"/></linearGradient><linearGradient id="linearGradient4133-1"><stop style="stop-color:#000;stop-opacity:.1254902" id="stop4135-3" offset="0"/><stop style="stop-color:#000;stop-opacity:.0627451" id="stop4137-6" offset="1"/></linearGradient><linearGradient id="linearGradient4125-9"><stop style="stop-color:#fff;stop-opacity:.48627451" id="stop4127-6" offset="0"/><stop style="stop-color:#fff;stop-opacity:0" id="stop4129-9" offset="1"/></linearGradient><linearGradient id="linearGradient4125-4"><stop id="stop4127-9" offset="0" style="stop-color:#fff;stop-opacity:.48627451"/><stop id="stop4129-7" offset="1" style="stop-color:#fff;stop-opacity:0"/></linearGradient><linearGradient id="linearGradient4831" x1="428.214" x2="428.214" y1="548.576" y2="541.576" gradientTransform="matrix(1.5416678,0,0,1.0499999,-290.56778,-32.61382)" gradientUnits="userSpaceOnUse" xlink:href="#linearGradient4125-4"/><radialGradient id="radialGradient4947" cx="66" cy="-19" r="7" fx="66" fy="-19" gradientTransform="matrix(0.99367928,0,0,0.99367805,299.57387,551.11759)" gradientUnits="userSpaceOnUse" xlink:href="#linearGradient3953"/><radialGradient id="radialGradient4949" cx="66" cy="-19" r="7" fx="66" fy="-19" gradientTransform="matrix(0.99367928,0,0,0.99367805,299.57387,551.11759)" gradientUnits="userSpaceOnUse" xlink:href="#linearGradient3965-6"/><radialGradient id="radialGradient4951" cx="66" cy="-19" r="7" fx="66" fy="-19" gradientTransform="matrix(-0.85407272,0.26776335,0.27911963,1.0701372,426.82867,534.89817)" gradientUnits="userSpaceOnUse" xlink:href="#linearGradient3953"/><radialGradient id="radialGradient4953" cx="459.214" cy="508.576" r="7.83" fx="459.214" fy="508.576" gradientTransform="matrix(0.88830637,0,0,0.88830728,-42.766347,80.46574)" gradientUnits="userSpaceOnUse" xlink:href="#linearGradient3965-6"/><linearGradient id="linearGradient5031" x1="428.214" x2="428.214" y1="548.576" y2="541.576" gradientTransform="matrix(1.4583389,0,0,0.85000434,-1004.5778,-989.73349)" gradientUnits="userSpaceOnUse" xlink:href="#linearGradient4133-1"/><linearGradient id="linearGradient5035" x1="428.214" x2="428.214" y1="548.576" y2="541.576" gradientTransform="matrix(1.4656473,0,0,0.85877468,-1007.7329,70.279873)" gradientUnits="userSpaceOnUse" xlink:href="#linearGradient4125-9"/></defs><metadata id="metadata3487"/><g id="layer1" transform="translate(-350.99212,-519.36632)"><rect id="rect4189" width="37" height="21" x="356.492" y="521.866" rx="10.514" ry="10.5" style="fill:none;stroke:url(#linearGradient4831);stroke-width:1.00010014000000003;stroke-linecap:square;stroke-linejoin:round;stroke-miterlimit:4;stroke-opacity:1;stroke-dasharray:none;opacity:.7"/><rect id="rect4018" width="38" height="20" x="-393.992" y="522.366" rx="10.434" ry="10" transform="scale(-1,1)" style="fill:#369;fill-opacity:1;stroke:none"/><rect style="fill:none;stroke:url(#linearGradient5035);stroke-width:.82458252;stroke-linecap:square;stroke-linejoin:round;stroke-miterlimit:4;stroke-opacity:1;stroke-dasharray:none" id="rect3204" width="35.175" height="17.175" x="-392.58" y="523.779" rx="8.588" ry="8.588" transform="scale(-1,1)"/><rect style="fill:#69c;fill-opacity:1;stroke:none" id="rect4022" width="36" height="18" x="-392.992" y="523.366" rx="9" ry="9" transform="scale(-1,1)"/><rect style="fill:none;stroke:url(#linearGradient5031);stroke-width:1;stroke-linecap:square;stroke-linejoin:round;stroke-miterlimit:4;stroke-opacity:1;stroke-dasharray:none" id="rect4032" width="35" height="17" x="-392.492" y="-540.866" rx="8.5" ry="8.5" transform="scale(-1,-1)"/><path id="path4444" d="m 75,-21.5 c 0,4.142136 -3.357864,7.5 -7.5,7.5 -4.142136,0 -7.5,-3.357864 -7.5,-7.5 0,-4.142136 3.357864,-7.5 7.5,-7.5 4.142136,0 7.5,3.357864 7.5,7.5 z" transform="matrix(-1.0666664,0,0,-1.0666664,455.99212,509.43297)" style="fill:#369;fill-opacity:1;stroke:none"/><g id="g3892" transform="matrix(-1,0,0,1,748.98426,-3.3e-5)"><path style="fill:#ececec;fill-opacity:1;stroke:none" id="path4436" d="m 72,-19.5 c 0,3.589851 -2.686292,6.5 -6,6.5 -3.313708,0 -6,-2.910149 -6,-6.5 0,-3.589851 2.686292,-6.5 6,-6.5 3.313708,0 6,2.910149 6,6.5 z" transform="matrix(1.1666667,0,0,1.076923,287.99212,553.36632)"/><path style="fill:url(#radialGradient4947);fill-opacity:1;stroke:url(#radialGradient4949);stroke-width:.92950141px;stroke-linecap:butt;stroke-linejoin:miter;stroke-opacity:1" id="path4438" d="m 365.15666,532.23777 -6.95575,3.47788 4.96839,3.47786 3.97472,-13.9115 4.96839,3.47787 -6.95575,3.47789 z"/><path id="path4440" d="m 365.15665,532.23776 6.95545,1.87115 -3.29347,5.08429 -7.32397,-13.91088 -3.29345,5.08428 6.95544,1.87116 z" style="fill:url(#radialGradient4951);fill-opacity:1;stroke:url(#radialGradient4953);stroke-width:.93012023"/><path id="path4442" d="m 75,-21.5 c 0,4.142136 -3.357864,7.5 -7.5,7.5 -4.142136,0 -7.5,-3.357864 -7.5,-7.5 0,-4.142136 3.357864,-7.5 7.5,-7.5 4.142136,0 7.5,3.357864 7.5,7.5 z" transform="matrix(0.87836359,0,0,-0.87836412,305.70258,513.48149)" style="fill:none;stroke:#fff;stroke-width:.93872386;stroke-linecap:square;stroke-linejoin:round;stroke-miterlimit:4;stroke-opacity:.54901961;stroke-dasharray:none"/></g></g></svg>