<svg xmlns="http://www.w3.org/2000/svg" xmlns:svg="http://www.w3.org/2000/svg" xmlns:xlink="http://www.w3.org/1999/xlink" id="svg11300" width="16" height="16" version="1.0" style="display:inline;enable-background:new"><defs id="defs3"><linearGradient id="linearGradient4246"><stop style="stop-color:#6397c9;stop-opacity:1" id="stop4248" offset="0"/><stop style="stop-color:#8db3d7;stop-opacity:1" id="stop4250" offset="1"/></linearGradient><linearGradient id="linearGradient3771"><stop style="stop-color:#fff;stop-opacity:1" id="stop3773" offset="0"/><stop style="stop-color:#eaeaea;stop-opacity:1" id="stop3775" offset="1"/></linearGradient><linearGradient id="linearGradient4044" x1="17.333" x2="17.333" y1="13.833" y2="1" gradientUnits="userSpaceOnUse" xlink:href="#linearGradient3771"/><linearGradient id="linearGradient4252" x1="17.333" x2="17.333" y1="15" y2="1" gradientUnits="userSpaceOnUse" xlink:href="#linearGradient4246"/><linearGradient id="linearGradient4357" x1="17.333" x2="17.333" y1="13.833" y2="1" gradientUnits="userSpaceOnUse" xlink:href="#linearGradient3771"/><linearGradient id="linearGradient4359" x1="17.333" x2="17.333" y1="13.833" y2="1" gradientTransform="matrix(0.42857102,0,0,0.42857102,4.5714318,4.57143)" gradientUnits="userSpaceOnUse" xlink:href="#linearGradient3771"/></defs><metadata id="metadata4"/><g style="display:inline" id="layer1" transform="translate(0,-284)"><path style="opacity:.6;fill:#000;fill-opacity:1;stroke:none" id="path4034" d="M 15,8 A 7,7 0 1 1 1,8 7,7 0 1 1 15,8 z" transform="translate(0,284)"/><path style="opacity:.29999999999999999;fill:#fff;fill-opacity:.29803923;stroke:none" id="path4087" d="M 1.03125 8.5 C 1.0195795 8.6652555 1 8.8317746 1 9 C 1 12.865993 4.1340068 16 8 16 C 11.865993 16 15 12.865993 15 9 C 15 8.8317746 14.98042 8.6652555 14.96875 8.5 C 14.712221 12.132486 11.697768 15 8 15 C 4.3022322 15 1.2877786 12.132486 1.03125 8.5 z" transform="translate(0,284)"/><path style="fill:url(#linearGradient4252);fill-opacity:1;stroke:none" id="path4236" d="M 15,8 A 7,7 0 1 1 1,8 7,7 0 1 1 15,8 z" transform="matrix(0.85714286,0,0,0.85714286,1.1428571,285.14286)"/><path style="opacity:.15;fill:#fff;fill-opacity:1;stroke:none" id="path4046" d="m 8,286 c -3.3137085,0 -6,2.68629 -6,6 0,0.12447 0.023779,0.25241 0.03125,0.375 C 2.33851,289.34946 4.8933983,287 8,287 c 3.106602,0 5.66149,2.34946 5.96875,5.375 C 13.976221,292.25241 14,292.12447 14,292 c 0,-3.31371 -2.686291,-6 -6,-6 z"/><path id="path4064" d="m 8,298 c -3.313709,0 -6,-2.68629 -6,-6 0,-0.12447 0.02378,-0.25241 0.03125,-0.375 C 2.33851,294.65054 4.893398,297 8,297 c 3.106602,0 5.66149,-2.34946 5.96875,-5.375 C 13.97625,291.74759 14,291.87553 14,292 c 0,3.31371 -2.686291,6 -6,6 z" style="opacity:.07999998;fill:#fff;fill-opacity:1;stroke:none"/><path id="path4265" d="M 15,8 A 7,7 0 1 1 1,8 7,7 0 1 1 15,8 z" transform="matrix(0.57142857,0,0,0.57142857,3.4285714,287.42857)" style="opacity:.25;fill:#000;fill-opacity:1;stroke:none"/><path id="path4036" d="M 15,8 A 7,7 0 1 1 1,8 7,7 0 1 1 15,8 z" transform="matrix(0.42857102,0,0,0.42857102,4.5714318,288.57143)" style="fill:url(#linearGradient4044);fill-opacity:1;stroke:none"/><path style="opacity:.12;fill:#fff;fill-opacity:1;stroke:none" id="path4348" d="M 4.0625 7.5 C 4.0418868 7.6645321 4 7.8298802 4 8 C 4 10.209139 5.790861 12 8 12 C 10.209139 12 12 10.209139 12 8 C 12 7.8298802 11.958113 7.6645321 11.9375 7.5 C 11.690434 9.4720463 10.039019 11 8 11 C 5.9609808 11 4.3095659 9.4720463 4.0625 7.5 z" transform="translate(0,284)"/><path style="fill:#000;fill-opacity:1;stroke:none;opacity:.1" id="path4353" d="M 8 5 C 6.3431473 5 5 6.3431473 5 8 C 5 8.1747639 5.0338207 8.3334248 5.0625 8.5 C 5.3057155 7.0873555 6.5179112 6 8 6 C 9.4820888 6 10.694284 7.0873555 10.9375 8.5 C 10.966179 8.3334248 11 8.1747639 11 8 C 11 6.3431473 9.6568527 5 8 5 z" transform="translate(0,284)"/></g></svg>