<svg xmlns="http://www.w3.org/2000/svg" xmlns:svg="http://www.w3.org/2000/svg" id="svg11300" width="24" height="24" version="1.0" style="display:inline;enable-background:new"><metadata id="metadata4"/><g style="display:inline" id="layer1" transform="translate(0,-276)"><path style="opacity:.1;fill:#fff;fill-opacity:1" id="rect4696" d="M 3 0 C 1.338 0 5.0596101e-18 1.338 0 3 L 0 21 C 0 22.662 1.338 24 3 24 L 24 24 L 24 23 L 3 23 C 1.892 23 1 22.108 1 21 L 1 3 C 1 1.892 1.892 1 3 1 L 24 1 L 24 0 L 3 0 z" transform="translate(0,276)"/><path style="opacity:.3;fill:#000;fill-opacity:1;stroke:none" id="rect2986" d="M 3,1 C 1.892,1 1,1.892 1,3 l 0,18 c 0,1.108 0.892,2 2,2 l 21,0 0,-22 z" transform="translate(0,276)"/><path style="opacity:.4;fill:#000;fill-opacity:1;stroke:none" id="rect2991" d="M 3,1 C 1.892,1 1,1.892 1,3 l 0,18 c 0,1.108 0.892,2 2,2 l 21,0 0,-1 -19.96875,0 c -1.108,0 -2,-0.892 -2,-2 l 0,-16 c 0,-1.108 0.892,-2 2,-2 L 24,2 24,1 z" transform="translate(0,276)"/></g></svg>