<svg xmlns="http://www.w3.org/2000/svg" xmlns:svg="http://www.w3.org/2000/svg" id="svg11300" width="25" height="24" version="1.0" style="display:inline;enable-background:new"><metadata id="metadata4"/><g style="display:inline" id="layer1" transform="translate(0,-276)"><path style="opacity:.8;fill:#000;fill-opacity:1;stroke:none;display:inline;enable-background:new" id="rect4066-9" d="m 13,280 0,6 -6,0 0,4 6,0 0,6 4,0 0,-6 6,0 0,-4 -6,0 0,-6 z m 1,1 2,0 0,6 6,0 0,2 -6,0 0,6 -2,0 0,-6 -6,0 0,-2 6,0 z"/><path style="opacity:.7;fill:#fff;fill-opacity:1;display:inline;enable-background:new" id="rect3119-7" d="m 14,281 0,6 -6,0 0,2 6,0 0,6 2,0 0,-6 6,0 0,-2 -6,0 0,-6 -2,0 z"/></g></svg>