<svg xmlns="http://www.w3.org/2000/svg" xmlns:svg="http://www.w3.org/2000/svg" id="svg11300" width="24" height="24" version="1.0" style="display:inline;enable-background:new"><metadata id="metadata4"/><g style="display:inline" id="layer1" transform="translate(0,-276)"><path style="opacity:.1;fill:#fff;fill-opacity:1;stroke:none" id="rect5790" d="M 3 0 C 1.338 0 4.7509197e-18 1.338 0 3 L 0 21 C 0 22.662 1.338 24 3 24 L 21 24 C 22.662 24 24 22.662 24 21 L 24 3 C 24 1.338 22.662 4.7509197e-18 21 0 L 3 0 z M 3 1 L 21 1 C 22.108 1 23 1.892 23 3 L 23 21 C 23 22.108 22.108 23 21 23 L 3 23 C 1.892 23 1 22.108 1 21 L 1 3 C 1 1.892 1.892 1 3 1 z" transform="translate(0,276)"/><rect style="opacity:.03999999;fill:#fff;fill-opacity:1;stroke:none" id="rect5195" width="22" height="1" x="1" y="299"/><rect style="opacity:.5;fill:#000;fill-opacity:1;stroke:none" id="rect3009" width="22" height="22" x="1" y="1" rx="2" ry="2" transform="translate(0,276)"/><path style="opacity:.5;fill:#000;fill-opacity:1;stroke:none" id="rect3022" d="M 3 1 C 1.892 1 1 1.892 1 3 L 1 21 C 1 22.108 1.892 23 3 23 L 21 23 C 22.108 23 23 22.108 23 21 L 23 3 C 23 1.892 22.108 1 21 1 L 3 1 z M 4 2 L 20 2 C 21.108 2 22 2.892 22 4 L 22 20 C 22 21.108 21.108 22 20 22 L 4 22 C 2.892 22 2 21.108 2 20 L 2 4 C 2 2.892 2.892 2 4 2 z" transform="translate(0,276)"/></g></svg>