<svg xmlns="http://www.w3.org/2000/svg" xmlns:svg="http://www.w3.org/2000/svg" id="svg11300" width="24" height="24" version="1.0" style="display:inline;enable-background:new"><metadata id="metadata4"/><g style="display:inline" id="layer1" transform="translate(0,-276)"><rect style="opacity:.03999999;fill:#fff;fill-opacity:1;stroke:none" id="rect5195" width="22" height="1" x="1" y="299"/><rect style="opacity:.3;fill:#000;fill-opacity:1;stroke:none" id="rect3009" width="22" height="22" x="1" y="1" rx="2" ry="2" transform="translate(0,276)"/><path style="opacity:.5;fill:#000;fill-opacity:1;stroke:none" id="rect3022" d="M 3 1 C 1.892 1 1 1.892 1 3 L 1 21 C 1 22.108 1.892 23 3 23 L 21 23 C 22.108 23 23 22.108 23 21 L 23 3 C 23 1.892 22.108 1 21 1 L 3 1 z M 4 2 L 20 2 C 21.108 2 22 2.892 22 4 L 22 20 C 22 21.108 21.108 22 20 22 L 4 22 C 2.892 22 2 21.108 2 20 L 2 4 C 2 2.892 2.892 2 4 2 z" transform="translate(0,276)"/><path style="display:inline;opacity:.1;fill:#fff;fill-opacity:1;stroke:none;enable-background:new" id="rect5790" d="m 3,276 c -1.662,0 -3,1.338 -3,3 l 0,18 c 0,1.662 1.338,3 3,3 l 18,0 c 1.662,0 3,-1.338 3,-3 l 0,-18 c 0,-1.662 -1.338,-3 -3,-3 l -18,0 z m 0,1 18,0 c 1.108,0 2,0.892 2,2 l 0,18 c 0,1.108 -0.892,2 -2,2 l -18,0 c -1.108,0 -2,-0.892 -2,-2 l 0,-18 c 0,-1.108 0.892,-2 2,-2 z"/></g></svg>