<svg xmlns="http://www.w3.org/2000/svg" xmlns:svg="http://www.w3.org/2000/svg" xmlns:xlink="http://www.w3.org/1999/xlink" id="svg11300" width="24" height="24" version="1.0" style="display:inline;enable-background:new"><defs id="defs3"><linearGradient id="linearGradient3888"><stop style="stop-color:#000;stop-opacity:1" id="stop3890" offset="0"/><stop style="stop-color:#000;stop-opacity:0" id="stop3892" offset="1"/></linearGradient><linearGradient id="linearGradient3880"><stop style="stop-color:#000;stop-opacity:1" id="stop3882" offset="0"/><stop style="stop-color:#000;stop-opacity:0" id="stop3884" offset="1"/></linearGradient><linearGradient id="linearGradient3886" x1="24" x2="24" y1="2" y2="22" gradientUnits="userSpaceOnUse" xlink:href="#linearGradient3880"/><linearGradient id="linearGradient3894" x1="24" x2="24" y1="3" y2="21" gradientUnits="userSpaceOnUse" xlink:href="#linearGradient3888"/></defs><metadata id="metadata4"/><g style="display:inline" id="layer1" transform="translate(0,-276)"><rect style="opacity:.03999999;fill:#fff;fill-opacity:1;stroke:none" id="rect5195" width="22" height="1" x="1" y="299"/><rect style="opacity:.55;fill:#000;fill-opacity:1;stroke:none" id="rect3009" width="22" height="22" x="1" y="277" rx="2" ry="2"/><path style="opacity:.5;fill:#000;fill-opacity:1;stroke:none" id="rect3022" d="M 3 1 C 1.892 1 1 1.892 1 3 L 1 21 C 1 22.108 1.892 23 3 23 L 21 23 C 22.108 23 23 22.108 23 21 L 23 3 C 23 1.892 22.108 1 21 1 L 3 1 z M 4 2 L 20 2 C 21.108 2 22 2.892 22 4 L 22 20 C 22 21.108 21.108 22 20 22 L 4 22 C 2.892 22 2 21.108 2 20 L 2 4 C 2 2.892 2.892 2 4 2 z" transform="translate(0,276)"/><path style="opacity:.04;fill:#fff;fill-opacity:1;stroke:none" id="rect3027" d="M 2 0 C 0.892 0 3.0947467e-18 0.892 0 2 L 0 22 C 0 23.108 0.892 24 2 24 L 22 24 C 23.108 24 24 23.108 24 22 L 24 2 C 24 0.892 23.108 3.0947467e-18 22 0 L 2 0 z M 3 1 L 21 1 C 22.108 1 23 1.892 23 3 L 23 21 C 23 22.108 22.108 23 21 23 L 3 23 C 1.892 23 1 22.108 1 21 L 1 3 C 1 1.892 1.892 1 3 1 z" transform="translate(0,276)"/><path style="opacity:.04;fill:#fff;fill-opacity:1;stroke:none" id="rect3094" d="M 1 21 L 1 22 C 1 23.108 1.892 24 3 24 L 21 24 C 22.108 24 23 23.108 23 22 L 23 21 C 23 22.108 22.108 23 21 23 L 3 23 C 1.892 23 1 22.108 1 21 z" transform="translate(0,276)"/><path style="opacity:.3;fill:url(#linearGradient3886);fill-opacity:1;stroke:none" id="rect3102" d="M 4 2 C 2.892 2 2 2.892 2 4 L 2 20 C 2 21.108 2.892 22 4 22 L 20 22 C 21.108 22 22 21.108 22 20 L 22 4 C 22 2.892 21.108 2 20 2 L 4 2 z M 5 3 L 19 3 C 20.108 3 21 3.892 21 5 L 21 19 C 21 20.108 20.108 21 19 21 L 5 21 C 3.892 21 3 20.108 3 19 L 3 5 C 3 3.892 3.892 3 5 3 z" transform="translate(0,276)"/><path style="opacity:.1;fill:url(#linearGradient3894);fill-opacity:1;stroke:none" id="rect3107" d="M 5 3 C 3.892 3 3 3.892 3 5 L 3 19 C 3 20.108 3.892 21 5 21 L 19 21 C 20.108 21 21 20.108 21 19 L 21 5 C 21 3.892 20.108 3 19 3 L 5 3 z M 6 4 L 18 4 C 19.108 4 20 4.892 20 6 L 20 18 C 20 19.108 19.108 20 18 20 L 6 20 C 4.892 20 4 19.108 4 18 L 4 6 C 4 4.892 4.892 4 6 4 z" transform="translate(0,276)"/></g></svg>