<svg xmlns="http://www.w3.org/2000/svg" xmlns:svg="http://www.w3.org/2000/svg" id="svg11300" width="16" height="16" version="1.0" style="display:inline;enable-background:new"><defs id="defs3"><linearGradient id="linearGradient5236"><stop id="stop5238" offset="0" style="stop-color:#3e7ab6;stop-opacity:1"/><stop id="stop5240" offset="1" style="stop-color:#6598cb;stop-opacity:1"/></linearGradient><linearGradient id="linearGradient5235"><stop style="stop-color:#000;stop-opacity:0" id="stop5237" offset="0"/><stop id="stop5239" offset=".35" style="stop-color:#000;stop-opacity:.78431374"/><stop id="stop5241" offset=".5" style="stop-color:#000;stop-opacity:1"/><stop style="stop-color:#000;stop-opacity:.78431374" id="stop5243" offset=".65"/><stop style="stop-color:#000;stop-opacity:0" id="stop5245" offset="1"/></linearGradient><linearGradient id="linearGradient4006-3-0"><stop id="stop4008-3-9" offset="0" style="stop-color:#fff;stop-opacity:1"/><stop id="stop4010-8-7" offset="1" style="stop-color:#fff;stop-opacity:0"/></linearGradient></defs><metadata id="metadata4"/><g style="display:inline" id="layer1" transform="translate(0,-284)"><g style="display:inline;enable-background:new" id="g4203" transform="translate(-4,281)"><g id="layer1-6" transform="translate(0,-278)" style="display:inline"><path id="rect3419" d="m 11,6 0,5 -5,0 0,6 6,0 0,-5 5,0 0,-6 -6,0 z m 1,1 4,0 0,4 -4,0 0,-4 z m 1,1 0,2 2,0 0,-2 -2,0 z m -6,4 4,0 0,4 -4,0 0,-4 z m 1,1 0,2 2,0 0,-2 -2,0 z" transform="translate(0,278)" style="fill:#bebebe;fill-opacity:1;stroke:none"/></g></g></g></svg>